<?xml version="1.0" standalone="no"?><!DOCTYPE svg PUBLIC "-//W3C//DTD SVG 1.1//EN" "http://www.w3.org/Graphics/SVG/1.1/DTD/svg11.dtd"><svg t="1702110257455" class="icon" viewBox="0 0 1024 1024" version="1.1" xmlns="http://www.w3.org/2000/svg" p-id="33991" xmlns:xlink="http://www.w3.org/1999/xlink" width="200" height="200"><path d="M783.56 716.19L578.63 511.26 783 306.9a47.46 47.46 0 0 0 0-67.11 47.47 47.47 0 0 0-67.12 0L511.52 444.15 307.89 240.52a47.46 47.46 0 0 0-67.11 0 47.45 47.45 0 0 0 0 67.12l203.63 203.62-204.2 204.2a47.46 47.46 0 0 0 0 67.11 47.44 47.44 0 0 0 67.11 0l204.2-204.19 204.93 204.93a47.46 47.46 0 0 0 67.11 0 47.45 47.45 0 0 0 0-67.12z" p-id="33992" fill="#ffffff"></path></svg>