<?xml version="1.0" standalone="no"?><!DOCTYPE svg PUBLIC "-//W3C//DTD SVG 1.1//EN" "http://www.w3.org/Graphics/SVG/1.1/DTD/svg11.dtd"><svg t="1702110029781" class="icon" viewBox="0 0 1024 1024" version="1.1" xmlns="http://www.w3.org/2000/svg" p-id="9572" xmlns:xlink="http://www.w3.org/1999/xlink" width="200" height="200"><path d="M436.14 510.95c103.3 0 185.94-82.64 185.94-185.94s-82.64-185.94-185.94-185.94S250.2 221.71 250.2 325.01s82.64 185.94 185.94 185.94z m0-289.23c57.84 0 103.3 45.46 103.3 103.3 0 57.85-45.46 103.3-103.3 103.3-57.85 0-103.3-45.45-103.3-103.3 0-57.85 45.46-103.3 103.3-103.3z" p-id="9573" fill="#ffffff"></path><path d="M690.24 597.37l96.04-96.04-82.99-82.99-143.57 143.57c-38.76-6.13-80.24-9.64-123.57-9.64-204.53 0-371.88 74.38-371.88 165.28v82.64c0 45.45 37.19 82.64 82.64 82.64h578.47c45.45 0 82.64-37.19 82.64-82.64v-82.64c0-47.28-45.53-89.98-117.78-120.18z m35.14 202.82H146.91v-82.64c0-45.46 130.16-82.64 289.24-82.64 16.82 0 33.21 0.5 49.27 1.3l-26.97 26.97v83h83l89.46-89.46c57.84 15.13 94.48 36.8 94.48 60.84v82.63zM850.61 405.89l-51.87-51.87c-4.15-4.15-9.34-6.22-15.56-6.22s-11.41 2.07-15.56 6.22l-40.46 40.46 83 83 40.46-40.46c4.15-4.15 6.22-9.33 6.22-15.56-0.01-6.23-2.08-11.42-6.23-15.57z" p-id="9574" fill="#ffffff"></path></svg>